<svg xmlns="http://www.w3.org/2000/svg" width="1400" height="735" viewBox="0 0 1400 735" version="1.1"><path d="M 964.500 49 C 966.648 51.200, 968.011 53, 967.529 53 C 967.046 53, 967.690 54.105, 968.958 55.456 C 970.227 56.806, 971.543 57.823, 971.883 57.715 C 972.222 57.606, 976.502 61.676, 981.393 66.759 C 986.283 71.841, 989.918 76, 989.468 76 C 989.019 76, 989.690 77.105, 990.958 78.456 C 992.227 79.806, 993.583 80.819, 993.972 80.706 C 994.360 80.593, 999.071 85.112, 1004.440 90.750 C 1009.810 96.388, 1013.854 101, 1013.427 101 C 1013.001 101, 1013.690 102.105, 1014.958 103.456 C 1016.227 104.806, 1017.561 105.819, 1017.922 105.706 C 1018.284 105.593, 1022.777 109.888, 1027.908 115.250 C 1033.039 120.612, 1036.880 125, 1036.444 125 C 1036.008 125, 1036.690 126.105, 1037.958 127.456 C 1039.227 128.806, 1040.543 129.823, 1040.883 129.715 C 1041.222 129.606, 1045.502 133.676, 1050.393 138.759 C 1055.283 143.841, 1058.918 148, 1058.468 148 C 1058.019 148, 1058.690 149.105, 1059.958 150.456 C 1061.227 151.806, 1062.543 152.840, 1062.883 152.752 C 1063.222 152.664, 1067.745 156.958, 1072.934 162.296 C 1078.123 167.633, 1081.991 172, 1081.529 172 C 1081.068 172, 1081.488 172.882, 1082.464 173.960 C 1083.440 175.038, 1084.522 175.831, 1084.869 175.723 C 1085.740 175.449, 1103.549 194.077, 1103.294 194.995 C 1103.054 195.858, 1108.042 200.742, 1108.407 200 C 1108.542 199.725, 1112.400 203.459, 1116.979 208.297 C 1123.676 215.371, 1125.052 217.329, 1124.006 218.297 C 1122.977 219.249, 1122.873 219.208, 1123.508 218.095 C 1124.049 217.147, 1123.929 216.926, 1123.138 217.415 C 1122.494 217.813, 1122.203 218.519, 1122.491 218.985 C 1122.779 219.451, 1121.034 221.557, 1118.614 223.666 C 1116.193 225.775, 1086.076 259.091, 1051.687 297.702 C 1017.298 336.314, 967.412 392.312, 940.831 422.144 C 893.362 475.415, 873.479 497.721, 759.750 625.289 C 728.538 660.299, 703 689.229, 703 689.578 C 703 690.939, 697.616 696.482, 696.589 696.179 C 695.946 695.989, 696.007 696.373, 696.736 697.115 C 702.061 702.531, 711.929 696.036, 729.500 675.550 C 735.255 668.840, 740.988 662.413, 746 657.051 C 747.925 654.992, 751.525 650.911, 754 647.982 C 756.475 645.054, 760.075 641.020, 762 639.019 C 763.925 637.018, 767.750 632.753, 770.500 629.541 C 773.250 626.329, 777.750 621.249, 780.500 618.252 C 789.516 608.426, 790.454 607.375, 794.862 602.168 C 797.261 599.335, 801.086 595.053, 803.362 592.654 C 805.638 590.255, 809.300 586.157, 811.500 583.548 C 813.700 580.939, 816.625 577.544, 818 576.004 C 823.075 570.319, 833.575 558.678, 836 556.047 C 837.375 554.556, 840.975 550.489, 844 547.010 C 847.025 543.531, 850.850 539.259, 852.500 537.516 C 854.150 535.773, 857.975 531.490, 861 527.998 C 864.025 524.506, 867.625 520.423, 869 518.924 C 870.375 517.426, 873.975 513.391, 877 509.958 C 880.025 506.525, 883.850 502.268, 885.500 500.498 C 887.150 498.728, 891.268 494.179, 894.650 490.390 C 898.033 486.600, 901.858 482.322, 903.150 480.881 C 904.443 479.441, 907.525 475.879, 910 472.966 C 912.475 470.052, 916.300 465.799, 918.500 463.514 C 920.700 461.230, 924.300 457.172, 926.500 454.497 C 928.700 451.822, 932.829 447.128, 935.676 444.067 C 941.407 437.904, 943.122 435.998, 950.673 427.394 C 953.518 424.152, 957.568 419.652, 959.673 417.393 C 961.778 415.133, 965.300 411.164, 967.500 408.572 C 969.700 405.979, 973.075 402.175, 975 400.117 C 976.925 398.060, 980.975 393.525, 984 390.040 C 987.025 386.556, 990.625 382.479, 992 380.980 C 993.375 379.482, 996.975 375.432, 1000 371.982 C 1003.025 368.532, 1007.593 363.412, 1010.151 360.604 C 1019.030 350.859, 1020.524 349.176, 1025 343.879 C 1027.475 340.950, 1031.075 336.942, 1033 334.972 C 1034.925 333.003, 1038.750 328.745, 1041.500 325.512 C 1044.250 322.278, 1047.625 318.434, 1049 316.970 C 1053.113 312.590, 1061.233 303.496, 1065.500 298.489 C 1067.700 295.908, 1071.300 291.862, 1073.500 289.500 C 1075.700 287.137, 1079.525 282.839, 1082 279.948 C 1086.147 275.105, 1092.850 267.631, 1099 260.994 C 1100.375 259.510, 1103.975 255.443, 1107 251.956 C 1110.025 248.470, 1113.625 244.413, 1115 242.942 C 1122.988 234.396, 1126 228.605, 1126 221.797 C 1126 217.784, 1125.452 215.573, 1124 213.727 C 1122.900 212.329, 1122 210.886, 1122 210.521 C 1122 210.156, 1121.438 209.253, 1120.750 208.514 C 1120.063 207.775, 1114.775 202.083, 1109 195.866 C 1099.728 185.884, 1082.688 168.116, 1066 151.030 C 1062.975 147.933, 1053.086 137.547, 1044.025 127.950 C 1034.963 118.352, 1024.388 107.320, 1020.525 103.434 C 1016.661 99.547, 1007.200 89.687, 999.500 81.522 C 975.552 56.128, 963.944 45, 961.403 45 C 960.958 45, 962.352 46.800, 964.500 49 M 420.188 149.446 L 351.500 217.893 354.460 220.696 C 356.089 222.238, 356.640 222.552, 355.685 221.393 C 354.304 219.717, 354.210 219.081, 355.225 218.280 C 357.707 216.320, 503.960 131.596, 559 100.234 C 576.875 90.049, 591.688 81.554, 591.917 81.358 C 592.146 81.161, 569.055 81, 540.604 81 L 488.876 81 420.188 149.446 M 744.454 96.128 C 704.771 119.259, 517.799 227.227, 452.289 264.839 C 429.624 277.853, 411.061 288.732, 411.039 289.015 C 411.007 289.440, 481.275 374.522, 484.024 377.388 C 484.511 377.896, 493.569 373.231, 505.188 366.489 C 516.360 360.006, 548.900 341.195, 577.500 324.685 C 606.100 308.176, 655.150 279.855, 686.500 261.751 C 717.850 243.646, 769.028 214.133, 800.229 196.167 C 831.430 178.200, 856.967 163.182, 856.979 162.794 C 856.991 162.406, 855.643 159.787, 853.984 156.974 C 852.326 154.161, 851.184 151.511, 851.447 151.085 C 851.710 150.660, 873.740 137.754, 900.403 122.406 L 948.881 94.500 942.217 87.750 L 935.554 81 852.980 81 L 770.407 81 744.454 96.128 M 1007 192.136 C 994.625 199.355, 961.325 218.641, 933 234.994 C 904.675 251.347, 877.225 267.197, 872 270.216 C 828.977 295.077, 612.869 419.802, 599.500 427.488 C 590.150 432.863, 582.072 437.652, 581.550 438.130 C 581.011 438.624, 618.533 439, 668.300 439 L 756 439 756 432 L 756 425 819.250 424.966 L 882.500 424.933 973.500 322.879 C 1023.550 266.750, 1065.029 220.078, 1065.676 219.163 C 1066.684 217.739, 1064.172 214.738, 1048.176 198.255 L 1029.500 179.011 1007 192.136 M 303.579 228.500 C 306.402 233.105, 315.529 244.993, 320 249.887 C 321.375 251.393, 323.850 254.329, 325.500 256.413 C 327.150 258.497, 328.950 260.724, 329.500 261.362 C 334.467 267.122, 337.853 271.205, 339.724 273.694 C 340.947 275.320, 343.113 277.967, 344.538 279.576 C 349.020 284.636, 350.476 286.365, 354.541 291.459 C 356.719 294.187, 359.175 297.172, 360 298.092 C 364.804 303.455, 370.620 310.513, 371.374 311.897 C 371.855 312.779, 372.755 313.950, 373.374 314.500 C 374.763 315.734, 379.502 321.299, 383.500 326.393 C 385.150 328.495, 387.400 331.220, 388.500 332.449 C 389.600 333.678, 391.850 336.362, 393.500 338.414 C 395.150 340.466, 397.247 343.034, 398.159 344.121 C 399.072 345.207, 401.251 347.854, 403.002 350.002 C 404.753 352.150, 407.156 354.982, 408.343 356.295 C 409.529 357.609, 411.850 360.362, 413.500 362.414 C 419.082 369.357, 425.245 376.857, 427.651 379.636 C 428.668 380.811, 430.850 383.427, 432.500 385.450 C 434.150 387.473, 436.625 390.381, 438 391.912 C 439.375 393.443, 441.625 396.146, 443 397.920 C 444.375 399.693, 446.400 402.165, 447.500 403.413 C 448.600 404.661, 450.719 407.243, 452.209 409.151 C 453.699 411.059, 455.949 413.767, 457.209 415.170 C 458.469 416.573, 460.625 419.165, 462 420.930 C 463.375 422.696, 465.212 424.933, 466.082 425.902 C 468.325 428.401, 477.941 439.925, 481.500 444.381 C 483.150 446.447, 485.400 449.173, 486.500 450.439 C 487.600 451.705, 489.359 453.812, 490.408 455.121 C 491.457 456.429, 493.707 459.093, 495.408 461.041 C 497.109 462.988, 499.625 466.101, 501 467.957 C 502.375 469.814, 504.459 472.271, 505.631 473.417 C 506.803 474.563, 509.445 477.750, 511.502 480.500 C 513.559 483.250, 515.551 485.725, 515.929 486 C 516.697 486.559, 525.876 497.554, 530.500 503.453 C 532.150 505.558, 534.175 508.023, 535 508.929 C 537.407 511.575, 542.296 517.430, 545 520.908 C 546.375 522.676, 548.850 525.625, 550.500 527.462 C 552.150 529.298, 554.625 532.230, 556 533.976 C 557.375 535.723, 559.247 538.040, 560.159 539.124 C 561.072 540.209, 563.322 542.961, 565.159 545.241 C 566.997 547.520, 569.288 550.073, 570.250 550.915 C 571.212 551.756, 572 552.760, 572 553.145 C 572 553.531, 573.237 555.147, 574.750 556.737 C 576.263 558.326, 578.625 561.106, 580 562.913 C 581.375 564.720, 584.300 568.242, 586.500 570.740 C 588.700 573.238, 591.100 576.137, 591.834 577.181 C 592.568 578.225, 594.310 580.299, 595.704 581.790 C 597.099 583.280, 599.423 586.060, 600.870 587.967 C 602.316 589.874, 604.175 592.169, 605 593.067 C 605.825 593.965, 607.180 595.555, 608.010 596.600 C 609.738 598.774, 622.580 614.216, 635 629.056 C 635.825 630.042, 637.625 632.277, 639 634.023 C 640.375 635.769, 643.300 639.232, 645.500 641.718 C 647.700 644.205, 649.950 646.994, 650.500 647.917 C 651.050 648.839, 652.706 650.923, 654.179 652.547 C 657.295 655.981, 659.523 658.620, 663 662.991 C 664.375 664.720, 666.625 667.371, 668 668.883 C 669.375 670.395, 671.469 672.883, 672.653 674.412 C 676.988 680.011, 681.634 685.368, 687.355 691.364 C 693.591 697.899, 693.935 697.316, 688.061 690.164 C 686.102 687.780, 684.650 685.305, 684.833 684.664 C 685.017 684.024, 684.832 683.835, 684.423 684.244 C 683.602 685.064, 680.356 680.991, 680.783 679.676 C 680.929 679.222, 680.638 679.106, 680.134 679.417 C 679.150 680.025, 675.392 675.044, 675.802 673.676 C 675.938 673.222, 675.638 673.106, 675.134 673.417 C 674.150 674.025, 670.392 669.044, 670.802 667.676 C 670.938 667.222, 670.638 667.106, 670.134 667.417 C 669.150 668.025, 665.392 663.044, 665.802 661.676 C 665.938 661.222, 665.638 661.106, 665.134 661.417 C 664.075 662.072, 660.405 656.991, 660.861 655.500 C 661.029 654.950, 660.844 654.822, 660.451 655.216 C 659.634 656.033, 655.356 650.982, 655.775 649.695 C 655.926 649.231, 655.638 649.106, 655.134 649.417 C 654.150 650.025, 650.392 645.044, 650.802 643.676 C 650.938 643.222, 650.638 643.106, 650.134 643.417 C 649.150 644.025, 645.392 639.044, 645.802 637.676 C 645.938 637.222, 645.638 637.106, 645.134 637.417 C 644.075 638.072, 640.405 632.991, 640.861 631.500 C 641.029 630.950, 640.844 630.822, 640.451 631.216 C 639.566 632.101, 635.373 626.928, 635.833 625.519 C 636.017 624.959, 635.832 624.835, 635.423 625.244 C 634.602 626.064, 631.356 621.991, 631.783 620.676 C 631.929 620.222, 631.638 620.106, 631.134 620.417 C 630.150 621.025, 626.392 616.044, 626.802 614.676 C 626.938 614.222, 626.623 614.115, 626.101 614.437 C 624.897 615.182, 620.812 609.548, 621.780 608.477 C 622.176 608.038, 621.987 607.973, 621.359 608.331 C 620.205 608.991, 616.345 604.200, 616.802 602.676 C 616.938 602.222, 616.638 602.106, 616.134 602.417 C 615.150 603.025, 611.392 598.044, 611.802 596.676 C 611.938 596.222, 611.638 596.106, 611.134 596.417 C 610.075 597.072, 606.405 591.991, 606.861 590.500 C 607.029 589.950, 606.844 589.822, 606.451 590.216 C 605.634 591.033, 601.356 585.982, 601.775 584.695 C 601.926 584.231, 601.638 584.106, 601.134 584.417 C 600.075 585.072, 596.405 579.991, 596.861 578.500 C 597.029 577.950, 596.844 577.822, 596.451 578.216 C 595.566 579.101, 591.373 573.928, 591.833 572.519 C 592.017 571.959, 591.850 571.817, 591.463 572.204 C 590.522 573.145, 581.999 562.811, 582.734 561.621 C 583.050 561.110, 582.839 560.982, 582.264 561.337 C 581.187 562.002, 577.361 557.147, 577.802 555.676 C 577.938 555.222, 577.638 555.106, 577.134 555.417 C 576.150 556.025, 572.392 551.044, 572.802 549.676 C 572.938 549.222, 572.638 549.106, 572.134 549.417 C 571.150 550.025, 567.392 545.044, 567.802 543.676 C 567.938 543.222, 567.638 543.106, 567.134 543.417 C 566.150 544.025, 562.392 539.044, 562.802 537.676 C 562.938 537.222, 562.638 537.106, 562.134 537.417 C 561.150 538.025, 557.392 533.044, 557.802 531.676 C 557.938 531.222, 557.638 531.106, 557.134 531.417 C 556.075 532.072, 552.405 526.991, 552.861 525.500 C 553.029 524.950, 552.844 524.822, 552.451 525.216 C 551.566 526.101, 547.373 520.928, 547.833 519.519 C 548.017 518.959, 547.850 518.817, 547.463 519.204 C 546.522 520.145, 537.999 509.811, 538.734 508.621 C 539.050 508.110, 538.839 507.982, 538.264 508.337 C 537.187 509.002, 533.361 504.147, 533.802 502.676 C 533.938 502.222, 533.638 502.106, 533.134 502.417 C 532.150 503.025, 528.392 498.044, 528.802 496.676 C 528.938 496.222, 528.638 496.106, 528.134 496.417 C 527.150 497.025, 523.392 492.044, 523.802 490.676 C 523.938 490.222, 523.638 490.106, 523.134 490.417 C 522.150 491.025, 518.392 486.044, 518.802 484.676 C 518.938 484.222, 518.638 484.106, 518.134 484.417 C 517.150 485.025, 513.392 480.044, 513.802 478.676 C 513.938 478.222, 513.638 478.106, 513.134 478.417 C 512.150 479.025, 508.392 474.044, 508.802 472.676 C 508.938 472.222, 508.638 472.106, 508.134 472.417 C 507.150 473.025, 503.392 468.044, 503.802 466.676 C 503.938 466.222, 503.638 466.106, 503.134 466.417 C 502.075 467.072, 498.405 461.991, 498.861 460.500 C 499.029 459.950, 498.844 459.822, 498.451 460.216 C 497.566 461.101, 493.373 455.928, 493.833 454.519 C 494.017 453.959, 493.832 453.835, 493.423 454.244 C 492.602 455.064, 489.356 450.991, 489.783 449.676 C 489.929 449.222, 489.638 449.106, 489.134 449.417 C 488.150 450.025, 484.392 445.044, 484.802 443.676 C 484.938 443.222, 484.638 443.106, 484.134 443.417 C 483.150 444.025, 479.392 439.044, 479.802 437.676 C 479.938 437.222, 479.638 437.106, 479.134 437.417 C 478.150 438.025, 474.392 433.044, 474.802 431.676 C 474.938 431.222, 474.638 431.106, 474.134 431.417 C 473.150 432.025, 469.392 427.044, 469.802 425.676 C 469.938 425.222, 469.638 425.106, 469.134 425.417 C 468.150 426.025, 464.392 421.044, 464.802 419.676 C 464.938 419.222, 464.638 419.106, 464.134 419.417 C 463.150 420.025, 459.392 415.044, 459.802 413.676 C 459.938 413.222, 459.638 413.106, 459.134 413.417 C 458.075 414.072, 454.405 408.991, 454.861 407.500 C 455.029 406.950, 454.844 406.822, 454.451 407.216 C 453.566 408.101, 449.373 402.928, 449.833 401.519 C 450.017 400.959, 449.832 400.835, 449.423 401.244 C 448.602 402.064, 445.356 397.991, 445.783 396.676 C 445.929 396.222, 445.638 396.106, 445.134 396.417 C 444.150 397.025, 440.392 392.044, 440.802 390.676 C 440.938 390.222, 440.638 390.106, 440.134 390.417 C 439.150 391.025, 435.392 386.044, 435.802 384.676 C 435.938 384.222, 435.638 384.106, 435.134 384.417 C 434.150 385.025, 430.392 380.044, 430.802 378.676 C 430.938 378.222, 430.638 378.106, 430.134 378.417 C 429.150 379.025, 425.392 374.044, 425.802 372.676 C 425.938 372.222, 425.638 372.106, 425.134 372.417 C 424.150 373.025, 420.392 368.044, 420.802 366.676 C 420.938 366.222, 420.638 366.106, 420.134 366.417 C 419.150 367.025, 415.392 362.044, 415.802 360.676 C 415.938 360.222, 415.638 360.106, 415.134 360.417 C 414.075 361.072, 410.405 355.991, 410.861 354.500 C 411.029 353.950, 410.844 353.822, 410.451 354.216 C 409.566 355.101, 405.373 349.928, 405.833 348.519 C 406.017 347.959, 405.850 347.817, 405.463 348.204 C 404.522 349.145, 395.999 338.811, 396.734 337.621 C 397.050 337.110, 396.839 336.982, 396.264 337.337 C 395.187 338.002, 391.361 333.147, 391.802 331.676 C 391.938 331.222, 391.638 331.106, 391.134 331.417 C 390.150 332.025, 386.392 327.044, 386.802 325.676 C 386.938 325.222, 386.638 325.106, 386.134 325.417 C 385.150 326.025, 381.392 321.044, 381.802 319.676 C 381.938 319.222, 381.638 319.106, 381.134 319.417 C 380.150 320.025, 376.392 315.044, 376.802 313.676 C 376.938 313.222, 376.638 313.106, 376.134 313.417 C 375.150 314.025, 371.392 309.044, 371.802 307.676 C 371.938 307.222, 371.638 307.106, 371.134 307.417 C 370.150 308.025, 366.392 303.044, 366.802 301.676 C 366.938 301.222, 366.638 301.106, 366.134 301.417 C 365.075 302.072, 361.405 296.991, 361.861 295.500 C 362.029 294.950, 361.844 294.822, 361.451 295.216 C 360.566 296.101, 356.373 290.928, 356.833 289.519 C 357.017 288.959, 356.832 288.835, 356.423 289.244 C 355.602 290.064, 352.356 285.991, 352.783 284.676 C 352.929 284.222, 352.638 284.106, 352.134 284.417 C 351.204 284.992, 347.574 280.330, 347.526 278.500 C 347.512 277.950, 346.946 277.500, 346.269 277.500 C 344.649 277.500, 341.868 273.487, 342.785 272.471 C 343.178 272.036, 342.987 271.973, 342.359 272.331 C 341.205 272.991, 337.345 268.200, 337.802 266.676 C 337.938 266.222, 337.638 266.106, 337.134 266.417 C 336.150 267.025, 332.392 262.044, 332.802 260.676 C 332.938 260.222, 332.638 260.106, 332.134 260.417 C 331.150 261.025, 327.392 256.044, 327.802 254.676 C 327.938 254.222, 327.638 254.106, 327.134 254.417 C 326.150 255.025, 322.392 250.044, 322.802 248.676 C 322.938 248.222, 322.638 248.106, 322.134 248.417 C 321.075 249.072, 317.405 243.991, 317.861 242.500 C 318.029 241.950, 317.844 241.822, 317.451 242.216 C 316.566 243.101, 312.373 237.928, 312.833 236.519 C 313.017 235.959, 312.857 235.810, 312.478 236.189 C 312.099 236.568, 309.987 234.768, 307.784 232.189 C 302.278 225.743, 301.437 225.006, 303.579 228.500 M 616.250 536.217 C 616.387 536.612, 634.445 558.557, 656.377 584.985 C 688.359 623.522, 696.523 632.811, 697.617 631.903 C 699.507 630.335, 782.441 537.133, 782.750 536.230 C 782.887 535.829, 745.425 535.500, 699.500 535.500 C 653.575 535.500, 616.112 535.823, 616.250 536.217" stroke="none" fill="#132341" fill-rule="evenodd"/><path d="M 383.402 127.149 L 295.105 215.298 301.802 223.437 C 331.304 259.287, 690.881 692.134, 692.986 694.330 L 695.699 697.160 756.099 629.393 C 789.320 592.122, 833.600 542.447, 854.500 519.005 C 895.234 473.316, 952.453 409.105, 1051.428 298.011 C 1085.489 259.780, 1115.758 225.879, 1118.694 222.676 L 1124.032 216.851 1101.266 193.142 C 1088.745 180.101, 1050.397 140.085, 1016.050 104.216 L 953.599 39 712.649 39 L 471.699 39 383.402 127.149 M 420.188 149.446 L 351.500 217.893 354.460 220.696 C 356.089 222.238, 356.640 222.552, 355.685 221.393 C 354.304 219.717, 354.210 219.081, 355.225 218.280 C 357.707 216.320, 503.960 131.596, 559 100.234 C 576.875 90.049, 591.688 81.554, 591.917 81.358 C 592.146 81.161, 569.055 81, 540.604 81 L 488.876 81 420.188 149.446 M 744.454 96.128 C 704.771 119.259, 517.799 227.227, 452.289 264.839 C 429.624 277.853, 411.061 288.732, 411.039 289.015 C 411.007 289.440, 481.275 374.522, 484.024 377.388 C 484.511 377.896, 493.569 373.231, 505.188 366.489 C 516.360 360.006, 548.900 341.195, 577.500 324.685 C 606.100 308.176, 655.150 279.855, 686.500 261.751 C 717.850 243.646, 769.028 214.133, 800.229 196.167 C 831.430 178.200, 856.967 163.182, 856.979 162.794 C 856.991 162.406, 855.643 159.787, 853.984 156.974 C 852.326 154.161, 851.184 151.511, 851.447 151.085 C 851.710 150.660, 873.740 137.754, 900.403 122.406 L 948.881 94.500 942.217 87.750 L 935.554 81 852.980 81 L 770.407 81 744.454 96.128 M 1007 192.136 C 994.625 199.355, 961.325 218.641, 933 234.994 C 904.675 251.347, 877.225 267.197, 872 270.216 C 828.977 295.077, 612.869 419.802, 599.500 427.488 C 590.150 432.863, 582.072 437.652, 581.550 438.130 C 581.011 438.624, 618.533 439, 668.300 439 L 756 439 756 432 L 756 425 819.250 424.966 L 882.500 424.933 973.500 322.879 C 1023.550 266.750, 1065.029 220.078, 1065.676 219.163 C 1066.684 217.739, 1064.172 214.738, 1048.176 198.255 L 1029.500 179.011 1007 192.136 M 616.250 536.217 C 616.387 536.612, 634.445 558.557, 656.377 584.985 C 688.359 623.522, 696.523 632.811, 697.617 631.903 C 699.507 630.335, 782.441 537.133, 782.750 536.230 C 782.887 535.829, 745.425 535.500, 699.500 535.500 C 653.575 535.500, 616.112 535.823, 616.250 536.217" stroke="none" fill="#234b82" fill-rule="evenodd"/></svg>